PathFileType	4	(X/Y/Z)	H:\MAC\Cortex8\Teaching\Biomec1_N_2\Trimmed_walk2.trc
DataRate	CameraRate	NumFrames	NumMarkers	Units	OrigDataRate	OrigDataStartFrame	OrigNumFrames
150.00	150.00	       9	28	mm	150.00	1	       184
Frame#	Time	R.ASIS			L.ASIS			R.PSIS			L.PSIS			L.Iliac.Crest			R.Iliac.Crest			R.GTR			R.Knee			R.HF			R.TT			R.Ankle			R.Heel			R.MT1			R.MT5			L.GTR			L.Knee			L.HF			L.TT			L.Ankle			L.Heel			L.MT1			L.MT5			R.Knee.Medial			R.Ankle.Medial			R.MT2			L.Knee.Medial			L.Ankle.Medial			L.MT2			V_Mid_ASIS			V_Mid_PSIS			V_Pelvis_Origin			V_R.Hip_JC			V_R.Knee_JC_Static			V_R.TT			V_R.Ankle_JC_Static			V_L.Hip_JC			V_Mid_Hip			V_R.MT2_Static			V_R.Knee.Medial			V_R.Ankle.Medial			V_R.TT			V_L.Knee_JC_Static			V_L.TT			V_L.Ankle_JC_Static			V_L.MT2_Static			V_R.Knee_JC			V_R.Ankle_JC			V_L.Knee_JC			V_L.Ankle_JC			V_R.TT_KJC_Static			V_L.TT_KJC_Static			V_R.TT_KJC			V_L.TT_KJC			V_R.MT2			V_L.MT2			
		X1	Y1	Z1	X2	Y2	Z2	X3	Y3	Z3	X4	Y4	Z4	X5	Y5	Z5	X6	Y6	Z6	X7	Y7	Z7	X8	Y8	Z8	X9	Y9	Z9	X10	Y10	Z10	X11	Y11	Z11	X12	Y12	Z12	X13	Y13	Z13	X14	Y14	Z14	X15	Y15	Z15	X16	Y16	Z16	X17	Y17	Z17	X18	Y18	Z18	X19	Y19	Z19	X20	Y20	Z20	X21	Y21	Z21	X22	Y22	Z22	X23	Y23	Z23	X24	Y24	Z24	X25	Y25	Z25	X26	Y26	Z26	X27	Y27	Z27	X28	Y28	Z28	

1.0	0.0	-306.10416	966.88	-516.54236	-560.16077	981.34631	-531.67438	-388.89532	977.08398	-315.74045	-467.70282	973.71918	-312.81592	-604.96246	1036.32178	-434.09613	-270.9567	1017.14392	-443.03604	-243.06613	885.62024	-434.24905	-259.7905	489.32623	-338.55429	-254.85144	432.19937	-309.56784	-299.80573	380.67014	-353.97595	-286.61737	202.13315	-31.60373	-342.46719	233.84627	21.31299	-331.41302	58.578	-94.61413	-245.57802	71.88602	-69.88731	-636.98602	890.44501	-487.42426	-592.25574	503.30667	-589.84106	-589.18109	444.39801	-614.63928	-522.74445	444.30673	-664.21161	-551.67303	80.56373	-609.51331	-492.33569	50.51409	-544.30371	-484.01364	58.845	-767.61285	-572.80322	51.50605	-744.80756	-387.68295	453.93762	-359.31476	-366.65799	177.60962	-69.99367	-295.95847	69.00763	-91.10587	-451.49405	491.83475	-584.31927	-461.64136	102.9697	-640.91467	-520.25671	67.05472	-766.49017
2.0	0.007	-308.23773	967.96594	-523.922	-561.77612	982.78345	-539.83044	-391.11392	977.64166	-323.29425	-469.66016	974.39514	-320.8877	-606.84698	1037.41211	-442.28375	-272.95914	1018.22504	-450.09927	-244.88354	885.83685	-442.84262	-258.93646	487.70508	-354.68845	-254.058	431.36884	-325.47745	-298.57581	380.13391	-368.89307	-287.52512	209.32716	-43.18227	-344.28494	243.71313	7.70701	-331.88364	62.22211	-100.52681	-246.36461	77.14419	-75.16457	-638.65033	891.31976	-494.65643	-592.74023	503.55115	-594.46027	-589.35883	444.49197	-618.95624	-522.95251	444.22272	-667.71484	-551.45007	80.66536	-609.90594	-492.35898	50.63499	-544.36963	-483.37326	57.83449	-767.69446	-572.27911	51.35967	-745.0304	-386.67429	451.20453	-376.88925	-367.63037	183.11494	-80.90663	-296.16809	72.94382	-97.3561	-452.45239	491.72031	-585.61047	-461.30609	102.78003	-641.00195	-519.62793	66.18866	-766.7088
3.0	0.013	-310.12112	968.92493	-531.20807	-563.42725	984.00653	-547.60663	-393.3429	978.15283	-330.56866	-472.19818	975.56348	-328.17276	-608.56061	1038.59619	-450.49966	-274.86606	1018.94373	-456.96875	-246.75024	885.98071	-451.00153	-258.00311	486.12231	-370.81366	-253.37019	430.63873	-341.53119	-297.43069	380.02048	-384.27612	-288.43866	216.27991	-55.32171	-345.98801	253.21924	-6.49521	-332.1832	65.87587	-107.61149	-247.18047	83.48915	-80.98045	-640.27814	892.2074	-501.79578	-593.19849	503.82666	-599.17572	-589.5379	444.6217	-623.13672	-522.27759	443.91647	-671.44452	-551.24823	80.75304	-610.2406	-492.39212	50.75705	-544.42023	-482.85785	56.82059	-767.85931	-571.82788	51.24249	-745.23676	-385.25735	448.62262	-395.5553	-368.64297	188.74547	-92.62741	-296.0993	76.88196	-104.8954	-453.99197	491.23099	-586.44348	-461.05392	102.52743	-641.22186	-519.13348	65.27229	-766.92682
4.0	0.02	-311.72064	969.77612	-538.24219	-564.85162	985.09637	-555.40649	-395.60764	978.81207	-337.63867	-474.1171	976.31671	-335.90649	-610.10016	1039.85034	-458.70126	-276.04999	1019.53442	-463.77768	-248.67877	886.01154	-458.73373	-257.10938	484.80698	-386.95746	-252.74736	430.01019	-357.68765	-296.91629	379.75433	-399.79059	-289.85153	223.56433	-67.89759	-347.69937	262.43304	-21.36058	-332.06381	69.42964	-115.94826	-248.29567	89.07278	-88.31037	-641.8172	893.10571	-508.93369	-593.5553	504.09943	-604.00488	-589.72083	444.65121	-627.099	-521.54041	443.61536	-674.9079	-551.06897	80.82606	-610.5213	-492.41089	50.88042	-544.47577	-482.43427	56.01261	-767.96191	-571.48267	51.12432	-745.39862	-384.1001	446.79431	-413.5412	-369.8544	194.33499	-104.89867	-295.37305	79.71064	-114.31816	-454.16455	491.34662	-588.36719	-460.72614	102.29733	-641.47699	-518.64502	64.64764	-767.09344
5.0	0.027	-313.07266	970.81128	-545.1142	-566.06659	986.00916	-563.14301	-397.85052	979.21619	-344.50589	-476.33908	977.24731	-343.31287	-611.50909	1041.19067	-466.85333	-277.61734	1019.73041	-470.04605	-250.65518	885.94543	-466.09805	-256.32962	483.87012	-402.95895	-252.06934	429.66415	-374.10001	-296.75168	379.80811	-415.55554	-291.01672	230.45418	-80.96002	-349.77072	271.25815	-37.00847	-331.81497	72.54327	-125.23349	-249.26259	95.63701	-96.35043	-643.271	894.01428	-516.08832	-593.9314	504.31073	-608.69849	-589.92938	444.49368	-630.82544	-520.92566	443.25638	-678.22198	-550.8891	80.89351	-610.75043	-492.42105	50.98153	-544.50806	-482.11655	55.38279	-768.06335	-571.1319	50.9467	-745.71973	-383.17188	445.6701	-431.52341	-371.12396	199.91045	-117.81542	-294.7886	81.98575	-123.653	-454.49768	491.36469	-589.59979	-460.27908	102.33441	-641.77759	-518.3222	64.1157	-767.2384
6.0	0.033	-314.16708	971.69977	-551.79865	-567.05334	986.83569	-570.69476	-400.05127	979.52893	-351.2963	-478.47266	978.16241	-350.46188	-612.82294	1042.58875	-474.85187	-279.05801	1019.73706	-476.21149	-252.59471	885.86688	-473.12195	-255.68317	483.46414	-418.86826	-251.66171	429.71497	-390.46283	-296.74487	380.1355	-431.51599	-292.50705	237.01033	-94.35389	-352.12592	279.29852	-53.19746	-331.33752	74.81152	-135.39484	-250.42241	102.82242	-105.55255	-644.63379	894.95868	-523.25177	-594.38361	504.4592	-613.18927	-590.1615	444.2749	-634.29285	-520.50598	442.86169	-681.35144	-550.74878	80.94488	-610.90588	-492.43143	51.06556	-544.54669	-481.83075	54.90424	-768.06458	-570.90259	50.87858	-745.80719	-382.82751	445.10208	-448.99292	-372.41919	205.37776	-131.34885	-294.12	83.65325	-133.85368	-454.77631	491.70486	-592.45605	-460.3642	102.01516	-641.82349	-518.00439	63.57795	-767.40265
7.0	0.04	-315.07938	972.74762	-558.21698	-568.16742	987.48535	-578.03857	-402.16635	979.75708	-357.97186	-480.58603	979.04889	-357.55811	-614.11053	1043.94434	-482.75375	-280.3457	1019.62024	-482.09351	-254.45642	885.75415	-479.99377	-255.15913	483.603	-434.67233	-251.32863	430.14719	-406.86337	-296.93655	380.58917	-447.75446	-294.17133	243.14197	-107.94897	-354.98343	286.31995	-69.22489	-331.22522	77.59445	-145.91573	-251.30057	109.43407	-115.9076	-645.93011	895.87482	-530.29694	-594.75458	504.37756	-617.50854	-590.60083	443.94907	-637.50562	-520.40881	442.38611	-684.26331	-550.62952	80.9798	-611.02673	-492.43933	51.13549	-544.56036	-481.70132	54.59927	-768.09595	-570.76862	50.79089	-745.89581	-382.849	445.47696	-465.90619	-373.70386	210.43655	-145.06293	-294.06384	86.98648	-144.12715	-455.40332	491.88776	-595.27826	-460.19159	101.84349	-641.97736	-517.8786	63.24953	-767.47992
8.0	0.047	-315.72241	973.82654	-564.50592	-568.93073	988.14594	-585.38959	-404.20932	979.94617	-364.54605	-482.58386	979.95929	-364.43161	-615.32874	1045.25317	-490.47763	-281.53433	1019.45465	-487.8501	-256.15637	885.63892	-486.75421	-254.92857	484.23505	-450.48621	-251.19919	430.96051	-423.18463	-297.49075	381.37402	-464.19748	-295.94241	248.88187	-121.88589	-357.77921	292.26566	-84.22557	-332.12006	81.84317	-157.40585	-251.88156	115.44276	-127.56117	-647.20087	896.67908	-537.37195	-595.34674	504.30969	-621.52985	-591.12738	443.60056	-640.34705	-520.677	441.85159	-687.03369	-550.54871	81.0181	-611.11346	-492.44421	51.19302	-544.58917	-481.63641	54.28354	-768.15192	-570.68341	50.62671	-746.00659	-383.05325	446.73013	-482.20056	-375.03088	215.10571	-158.83875	-294.93265	93.24699	-155.94188	-456.03421	492.03671	-598.41803	-460.11029	101.79715	-642.07886	-517.83398	62.96453	-767.57324
9.0	0.053	-316.27194	975.03284	-570.64172	-569.30902	988.8183	-592.83771	-406.12289	980.01221	-370.90268	-484.44214	980.87982	-371.28552	-616.51636	1046.3761	-498.03156	-282.56168	1019.33704	-493.4039	-257.73685	885.53479	-493.45074	-254.9108	485.49881	-466.16617	-251.1787	432.0379	-439.44223	-298.0358	382.34918	-480.47659	-297.90103	254.71495	-136.05209	-360.53418	297.48691	-98.16361	-333.0405	87.10721	-170.96716	-252.35081	121.12896	-140.76869	-648.34711	897.39075	-544.30261	-595.60529	504.08081	-625.44891	-591.71655	443.1344	-643.29657	-521.29413	441.18118	-689.64075	-550.48547	81.04311	-611.20673	-492.45093	51.24007	-544.62311	-481.62173	54.06042	-768.20056	-570.66095	50.49467	-746.10315	-383.19116	448.64236	-498.18683	-376.63864	219.74141	-172.87169	-296.28391	100.82513	-170.20821	-456.6846	491.94296	-603.15344	-460.05219	101.7559	-642.20984	-517.90399	62.65651	-767.73474
